<?xml version="1.0" standalone="no"?>
<!DOCTYPE svg PUBLIC "-//W3C//DTD SVG 20010904//EN"
 "http://www.w3.org/TR/2001/REC-SVG-20010904/DTD/svg10.dtd">
<svg version="1.0" xmlns="http://www.w3.org/2000/svg"
 width="24.000000pt" height="14.000000px" viewBox="0 0 24.000000 24.000000"
 preserveAspectRatio="xMidYMid meet">
<metadata>
Created by potrace 1.10, written by Peter Selinger 2001-2011
</metadata>
<g transform="translate(0.000000,24.000000) scale(0.100000,-0.100000)"
fill="#000000" stroke="none">
<path d="M55 230 c-103 -41 -35 -211 68 -172 29 11 34 10 67 -23 47 -46 61
-32 15 15 -33 33 -34 38 -23 67 16 43 -5 91 -48 109 -37 16 -50 16 -79 4z m79
-31 c51 -40 24 -121 -41 -121 -30 -1 -73 42 -73 70 1 21 18 45 45 60 28 16 39
15 69 -9z"/>
</g>
</svg>
